# xmcd CD database file
#
# Track frame offsets:
#	150
#	26225
#	45675
#
# Disc length: 821 seconds
#
# Revision: 0
# Processed by: cddbd v1.5.1PL0 Copyright (c) Steve Scherf et al.
# Submitted via: CDex 1.51
#
DISCID=21033303
DTITLE=The Other Ones - Money and gold [CD-Single)
DYEAR=1989
DGENRE=Jazz
TTITLE0=Money and gold
TTITLE1=Woman in luv
TTITLE2=Money and gold (Single mix)
EXTD=YEAR: 1989
EXTT0=
EXTT1=
EXTT2=
PLAYORDER=
